<?xml version="1.0" encoding="UTF-8" standalone="no"?>
<svg width="2000px" height="487px" viewBox="0 0 2000 487" version="1.1" xmlns="http://www.w3.org/2000/svg" xmlns:xlink="http://www.w3.org/1999/xlink" xmlns:sketch="http://www.bohemiancoding.com/sketch/ns">
    <title>tutum</title>
    <description>Created with Sketch (http://www.bohemiancoding.com/sketch)</description>
    <defs></defs>
    <g id="Page-1" stroke="none" stroke-width="1" fill="none" fill-rule="evenodd" sketch:type="MSPage">
        <g id="vectorial" sketch:type="MSLayerGroup" fill="#0096E5">
            <g id="Page-1" sketch:type="MSShapeGroup">
                <g id="Group">
                    <path d="M602.391428,203.901998 C604.08337,194.137416 605.133817,184.147622 605.133817,173.904463 C605.133817,77.8552449 527.512979,0 431.741855,0 C363.406651,0 304.47736,39.7621162 276.235563,97.3924514 C258.00509,89.0555578 237.818059,84.2898951 216.480348,84.2898951 C136.750596,84.2898951 72.1200224,149.123017 72.1200224,229.093653 C72.1200224,242.863804 74.1567676,256.139292 77.7330996,268.755228 C32.5879221,283.868612 0,326.534364 0,376.917675 C0,393.70809 3.71264959,409.621784 10.2158004,423.983119 L209.768711,223.797132 L176.226566,191.382582 L301.638746,172.07461 L282.069154,293.685475 L250.198904,262.879588 L45.6022423,468.092646 C64.6065178,482.40572 88.149367,491 113.744999,491 L149.957365,491 L461.234566,178.758602 L427.688412,146.336009 L553.104602,127.03608 L533.543028,248.650968 L501.664759,217.837037 L229.342313,491 L360.207197,491 L514.318239,336.399487 L480.780103,303.992981 L606.188274,284.685008 L586.618682,406.291853 L554.748431,375.485965 L439.592145,491 L576.118218,491 C655.859997,491 720.478543,426.166878 720.478543,346.204285 C720.478543,275.242159 669.547887,216.304786 602.391428,203.901998" id="Fill-3"></path>
                    <path d="M785.376738,305.108584 L756.805192,305.108584 L756.805192,261.24222 L786.675445,261.24222 L786.675445,200.863636 L840.359327,200.863636 L840.359327,261.24222 L890.571974,261.24222 L890.571974,305.108584 L840.359327,305.108584 L840.359327,394.578594 C840.359327,431.061511 868.926864,436.269334 884.08245,436.269334 C890.143081,436.269334 894.0392,435.404715 894.0392,435.404715 L894.0392,483.618305 C894.0392,483.618305 887.112765,484.913223 877.152006,484.913223 C846.419958,484.913223 785.376738,475.792494 785.376738,401.523699 L785.376738,305.108584 L785.376738,305.108584 Z" id="Fill-28"></path>
                    <path d="M938.944855,318.318625 C938.944855,311.792896 935.490754,308.745675 929.453065,308.745675 L912.202525,308.745675 L912.202525,261.731405 L964.385408,261.731405 C984.654792,261.731405 993.280062,270.873069 993.280062,290.889604 L993.280062,393.193204 C993.280062,420.186908 1000.17628,438.470235 1027.34988,438.470235 C1067.03011,438.470235 1089.02455,403.209533 1089.02455,363.591626 L1089.02455,261.731405 L1143.79102,261.731405 L1143.79102,427.587302 C1143.79102,433.681745 1147.23714,437.160252 1153.2908,437.160252 L1170.52536,437.160252 L1170.52536,483.743236 L1120.07951,483.743236 C1101.09593,483.743236 1091.17687,474.601572 1091.17687,458.930149 L1091.17687,452.835706 C1091.17687,447.607868 1091.61213,442.823408 1091.61213,442.823408 L1090.75759,442.823408 C1080.39928,465.895226 1052.79043,488.971074 1014.83924,488.971074 C967.839509,488.971074 938.944855,465.020561 938.944855,404.515484 L938.944855,318.318625 L938.944855,318.318625 Z" id="Fill-30"></path>
                    <path d="M1209.19082,305.108584 L1180.6161,305.108584 L1180.6161,261.24222 L1210.48949,261.24222 L1210.48949,200.863636 L1264.16379,200.863636 L1264.16379,261.24222 L1314.37497,261.24222 L1314.37497,305.108584 L1264.16379,305.108584 L1264.16379,394.578594 C1264.16379,431.061511 1292.73851,436.269334 1307.89365,436.269334 C1313.9541,436.269334 1317.85011,435.404715 1317.85011,435.404715 L1317.85011,483.618305 C1317.85011,483.618305 1310.91586,484.913223 1300.9594,484.913223 C1270.22424,484.913223 1209.19082,475.792494 1209.19082,401.523699 L1209.19082,305.108584 L1209.19082,305.108584 Z" id="Fill-32"></path>
                    <path d="M1368.80222,318.318625 C1368.80222,311.792896 1365.3561,308.745675 1359.31841,308.745675 L1342.06787,308.745675 L1342.06787,261.731405 L1394.24277,261.731405 C1414.52014,261.731405 1423.12944,270.873069 1423.12944,290.889604 L1423.12944,393.193204 C1423.12944,420.186908 1430.04163,438.470235 1457.21523,438.470235 C1496.87949,438.470235 1518.87393,403.209533 1518.87393,363.591626 L1518.87393,261.731405 L1573.65637,261.731405 L1573.65637,427.587302 C1573.65637,433.681745 1577.10248,437.160252 1583.14017,437.160252 L1600.39071,437.160252 L1600.39071,483.743236 L1549.92889,483.743236 C1530.96128,483.743236 1521.04222,474.601572 1521.04222,458.930149 L1521.04222,452.835706 C1521.04222,447.607868 1521.46151,442.823408 1521.46151,442.823408 L1520.60697,442.823408 C1510.24866,465.895226 1482.65578,488.971074 1444.70459,488.971074 C1397.68889,488.971074 1368.80222,465.020561 1368.80222,404.515484 L1368.80222,318.318625 L1368.80222,318.318625 Z" id="Fill-34"></path>
                    <path d="M1637.22097,319.488613 C1637.22097,312.962884 1633.77419,309.915662 1627.73533,309.915662 L1610.48145,309.915662 L1610.48145,262.901392 L1660.94906,262.901392 C1680.35967,262.901392 1689.84532,272.043056 1689.84532,287.714479 L1689.84532,294.240208 C1689.84532,299.028699 1689.42196,303.813158 1689.42196,303.813158 L1690.28066,303.813158 C1700.625,282.055354 1726.94516,257.673554 1761.45292,257.673554 C1794.67064,257.673554 1816.23001,273.349008 1825.71565,303.381872 L1826.59032,303.381872 C1838.22871,279.439419 1866.70161,257.673554 1901.64871,257.673554 C1947.35951,257.673554 1973.67967,283.796623 1973.67967,342.129144 L1973.67967,428.757289 C1973.67967,434.851732 1977.12645,438.33024 1983.16531,438.33024 L1999.98385,438.33024 L1999.98385,484.913223 L1948.23419,484.913223 C1927.51755,484.913223 1918.88661,476.206877 1918.88661,455.311646 L1918.88661,352.576759 C1918.88661,327.328355 1914.14579,308.166332 1888.70031,308.166332 C1861.52145,308.166332 1842.11482,331.24218 1836.07596,359.102488 C1833.48788,367.808835 1832.62918,376.950498 1832.62918,387.406175 L1832.62918,484.913223 L1777.83612,484.913223 L1777.83612,352.576759 C1777.83612,328.630276 1774.38934,308.166332 1748.08516,308.166332 C1720.47096,308.166332 1701.91904,331.24218 1695.02547,359.537806 C1692.87273,368.244152 1691.5747,377.389846 1691.5747,387.406175 L1691.5747,484.913223 L1637.22097,484.913223 L1637.22097,319.488613 L1637.22097,319.488613 Z" id="Fill-36"></path>
                </g>
            </g>
        </g>
    </g>
</svg>